<svg xmlns="http://www.w3.org/2000/svg" viewBox="0 0 512 512">
  <defs>
    <linearGradient id="bg" x1="0%" y1="0%" x2="100%" y2="100%">
      <stop offset="0%" style="stop-color:#f59e0b"/>
      <stop offset="100%" style="stop-color:#d97706"/>
    </linearGradient>
  </defs>
  <!-- Background -->
  <rect width="512" height="512" rx="80" fill="url(#bg)"/>
  <!-- Calendar/Schedule icon -->
  <rect x="100" y="140" width="312" height="260" rx="20" fill="white" opacity="0.95"/>
  <!-- Calendar header -->
  <rect x="100" y="140" width="312" height="60" rx="20" fill="#1f2937"/>
  <rect x="100" y="180" width="312" height="20" fill="#1f2937"/>
  <!-- Calendar dots/hooks -->
  <circle cx="160" cy="140" r="12" fill="#374151"/>
  <rect x="154" y="110" width="12" height="40" rx="6" fill="#374151"/>
  <circle cx="352" cy="140" r="12" fill="#374151"/>
  <rect x="346" y="110" width="12" height="40" rx="6" fill="#374151"/>
  <!-- Calendar grid lines -->
  <line x1="100" y1="260" x2="412" y2="260" stroke="#e5e7eb" stroke-width="2"/>
  <line x1="100" y1="330" x2="412" y2="330" stroke="#e5e7eb" stroke-width="2"/>
  <line x1="204" y1="200" x2="204" y2="400" stroke="#e5e7eb" stroke-width="2"/>
  <line x1="308" y1="200" x2="308" y2="400" stroke="#e5e7eb" stroke-width="2"/>
  <!-- Shift indicators -->
  <rect x="130" y="220" width="50" height="25" rx="5" fill="#10b981"/>
  <rect x="234" y="220" width="50" height="25" rx="5" fill="#10b981"/>
  <rect x="130" y="290" width="50" height="25" rx="5" fill="#10b981"/>
  <rect x="338" y="290" width="50" height="25" rx="5" fill="#10b981"/>
  <rect x="234" y="350" width="50" height="25" rx="5" fill="#10b981"/>
  <rect x="338" y="350" width="50" height="25" rx="5" fill="#10b981"/>
  <!-- FS Letters -->
  <text x="256" y="175" font-family="Arial, sans-serif" font-size="36" font-weight="bold" fill="white" text-anchor="middle">FS</text>
</svg>
